# xmcd
#
# Track frame offsets:
#	150
#	18130
#	37050
#	46947
#	58617
#	70632
#	86100
#	98300
#	112390
#	133187
#	151192
#	162335
#	178757
#	200292
#	216955
#	227197
#	245487
#	265987
#	279745
#	299140
#
# Disc length: 4161 seconds
#
# Revision: 1
# Processed by: cddbd v1.5.1PL0 Copyright (c) Steve Scherf et al.
# Submitted via: CDex 1.50Beta5
#
DISCID=2c103f14
DTITLE=・ポップスが弾きたくて - ニュー・ポップスが弾きたくて
DYEAR=1900
DGENRE=Pop
TTITLE0=オール・アット・ワンス
TTITLE1=青春の輝き
TTITLE2=アイム・フォレスト・・・フォレスト・ガンプ
TTITLE3=若葉のころ
TTITLE4=オールウェイズ・ラヴ・ユー
TTITLE5=ウィザウト・ユー
TTITLE6=ホール・ニュー・ワールド
TTITLE7=愛を感じて
TTITLE8=カラー
TTITLE9=美女と野獣
TTITLE10=・シネマ・パラダイス
TTITLE11=セイブ・ザ・ベスト・フォー・ラスト
TTITLE12=コーリング・ユー
TTITLE13=遥かな影
TTITLE14=男が女を愛する時
TTITLE15=愛は翼に乗って
TTITLE16=メリー・クリスマス・ミスター・ローレンス
TTITLE17=LIFE〜ステイ・ゴールド
TTITLE18=イフ・ウイ・ホールド・オン・トゥゲザー
TTITLE19=トップ・オブ・ザ・ワールド
EXTD=
EXTT0=
EXTT1=
EXTT2=
EXTT3=
EXTT4=
EXTT5=
EXTT6=
EXTT7=
EXTT8=
EXTT9=
EXTT10=
EXTT11=
EXTT12=
EXTT13=
EXTT14=
EXTT15=
EXTT16=
EXTT17=
EXTT18=
EXTT19=
PLAYORDER=
